<?xml version="1.0" encoding="utf-8"?>
<?xml-stylesheet type="text/xsl" href="rss1.xsl"?>
<rss version="2.0" xmlns:atom="http://www.w3.org/2005/Atom" xmlns:content="http://purl.org/rss/1.0/modules/content/" xmlns:dc="http://purl.org/dc/elements/1.1/" xmlns:media="http://search.yahoo.com/mrss/">
<channel>
 <title>Getty</title>
 <link>http://www.gettyimg.com/</link>
 <atom:link href="http://www.gettyimg.com/" rel="self" type="application/rss+xml" />

 
                <item>
                <title><![CDATA[【HD Live Performances】WEB-RiP - Mimi Webb - BBC Radio 1's Big Weekend 2023 - Dundee (2023-05-28) WEB-RiP 1080p-50fps-TPF HDMania]]></title>
                <link><![CDATA[https://sharemania.us/threads/mimi-webb-bbc-radio-1s-big-weekend-2023-dundee-2023-05-28-web-rip-1080p-50fps-tpf-hdmania.221642/]]></link>
                <description><![CDATA[<article>
<blockquote class="messageText SelectQuoteContainer ugc baseHtml">
<div style="text-align: center"><img src="https://i.postimg.cc/qqZ77qwx/BBC-Radio-1-s-Big-Weekend-2023-Dundee-MIMI-WEBB-Banner.png" class="bbCodeImage LbImage" alt="[​IMG]" data-url="https://i.postimg.cc/qqZ77qwx/BBC-Radio-1-s-Big-Weekend-2023-Dundee-MIMI-WEBB-Banner.png" style=""><br>
<b><span style="font-size: 18px">Mimi Webb - BBC Radio 1's Big Weekend 2023 - Dundee (2023-05-28) WEB-RiP 1080p-50fps-TPF HDMania</span></b><br>
<span style="font-size: 12px"><i>Expect immaculate pop and infectious hits from this Kent sensation.</i></span><br>
<img src="https://i.postimg.cc/9fSBqz7f/BBC-Radio-1-s-Big-Weekend-2023-Dundee-ZARA-LARSSON-Half-Banner.png" class="bbCodeImage LbImage" alt="[​IMG]" data-url="https://i.postimg.cc/9fSBqz7f/BBC-Radio-1-s-Big-Weekend-2023-Dundee-ZARA-LARSSON-Half-Banner.png" style=""><br>
<img src="https://i.postimg.cc/gJqtV66m/Mimi-Webb-BBC-Radio-1-s-Big-Weekend-2023-Dundee-2023-05-28-WEB-Ri-P-1080p-50fps-TPF-HDMania-0.jpg" class="bbCodeImage LbImage" alt="[​IMG]" data-url="https://i.postimg.cc/gJqtV66m/Mimi-Webb-BBC-Radio-1-s-Big-Weekend-2023-Dundee-2023-05-28-WEB-Ri-P-1080p-50fps-TPF-HDMania-0.jpg" style=""><br>
<img src="https://i.postimg.cc/BnVJbYtB/BBC-Radio-1-s-Big-Weekend-2023-Dundee-WEB-Ri-P-1080p-50fps-TPF-HDMania-00.jpg" class="bbCodeImage LbImage" alt="[​IMG]" data-url="https://i.postimg.cc/BnVJbYtB/BBC-Radio-1-s-Big-Weekend-2023-Dundee-WEB-Ri-P-1080p-50fps-TPF-HDMania-00.jpg" style=""><br>
<img src="https://i.postimg.cc/J7xdtZLQ/Mimi-Webb-BBC-Radio-1-s-Big-Weekend-2023-Dundee-2023-05-28-WEB-Ri-P-1080p-50fps-TPF-HDMania.jpg" class="bbCodeImage LbImage" alt="[​IMG]" data-url="https://i.postimg.cc/J7xdtZLQ/Mimi-Webb-BBC-Radio-1-s-Big-Weekend-2023-Dundee-2023-05-28-WEB-Ri-P-1080p-50fps-TPF-HDMania.jpg" style="">
<div class="ToggleTriggerAnchor bbCodeSpoilerContainer">
<button type="button" class="button bbCodeSpoilerButton ToggleTrigger Tooltip JsOnly" data-target="> .SpoilerTarget"><span>Spoiler: <span class="SpoilerTitle">MediaInfo.</span></span></button>
<div class="SpoilerTarget bbCodeSpoilerText">Size : 1.440 GB<br>
Duration : 00:16:54.43<br>
Mux type : MP4<br>
<b>Video:</b><br>
Encoding : H.264<br>
VideoStreamID : x201<br>
Frame rate : 50.00 fps<br>
Encoding size : 1920 x 1080<br>
Aspect ratio : 16:9<br>
Header bit rate : 12.000 Mbps<br>
VBV buffer : 2928 KBytes<br>
Profile : High/4.2<br>
Progressive : Progressive<br>
Chroma : 4:2:0<br>
Entropy mode : CABAC<br>
Bit rate : 10.907 Mbps<br>
<b>Audio Stream: 1 (Primary)</b><br>
Codec : AAC<br>
Format : RAW<br>
Channels : 2.0<br>
Language : eng<br>
PID : x202<br>
PES Stream Id : xC0<br>
Sampling rate : 48000<br>
Sample size : 16 bit</div>
</div>
<div class="bbCodeBlock bbCodeVfcHH HiddenContent">
<div class="attribution type">Hidden Content:</div>
<blockquote>You must either reply or click 'Like' to see the hidden information contained here.</blockquote>
</div><b><span style="color: rgb(255, 0, 0)">Don't forget to <i>Like</i>, if you download...</span><br>
</b><br>
<span style="font-size: 15px">If you like, </span><i><span style="font-size: 15px">like</span></i><span style="font-size: 15px">... <img src="styles/default/xenforo/smilies/exciting-48.png" class="mceSmilie" alt=":D" title="Big Grin    :D">...I always </span><i><span style="font-size: 15px">like</span></i><span style="font-size: 15px">, back (if you leave a <i>reply</i>)... <img src="styles/default/xenforo/smilies/haha-48.png" class="mceSmilie" alt=":lol:" title="LOL    :lol:"><br>
<br>
Credit to the original capper/ripper: <i><b>Me</b></i></span>​</div>
<div class="messageTextEndMarker">&nbsp;</div>
</blockquote>
</article>]]></description>
                <author><![CDATA[ThePixelFarm]]></author>
                </item>

                
                <item>
                <title><![CDATA[【Singles (lossless)】FLAC - MIJOO - Movie Star (FLAC 24bits/96kHz)]]></title>
                <link><![CDATA[https://sharemania.us/threads/mijoo-movie-star-flac-24bits-96khz.221651/]]></link>
                <description><![CDATA[<article>
<blockquote class="messageText SelectQuoteContainer ugc baseHtml">
<img src="https://images2.imgbox.com/d6/57/j90HUZqC_o.png" class="bbCodeImage LbImage" alt="[​IMG]" data-url="https://images2.imgbox.com/d6/57/j90HUZqC_o.png" style=""> <br>
<br>
"<b>Movie Star</b>" is the debut single album by <a href="https://kpop.fandom.com/wiki/Lee_Mi_Joo" target="_blank" class="externalLink" rel="nofollow">Mijoo</a>. It was released on May 17, 2023 with "Movie Star" serving as the single's title track.<br>
<br>
<div data-s9e-mediaembed="youtube" style="display:inline-block;width:100%;max-width:640px"><div style="overflow:hidden;position:relative;padding-bottom:56.25%"><iframe allowfullscreen="" scrolling="no" style="background:url(https://i.ytimg.com/vi/iSUSSjw3RVc/hqdefault.jpg) 50% 50% / cover;border:0;height:100%;left:0;position:absolute;width:100%" src="https://www.youtube.com/embed/iSUSSjw3RVc"></iframe></div></div><br>
<br>
<div data-s9e-mediaembed="youtube" style="display:inline-block;width:100%;max-width:640px"><div style="overflow:hidden;position:relative;padding-bottom:56.25%"><iframe allowfullscreen="" scrolling="no" style="background:url(https://i.ytimg.com/vi/b0ZD4wyoNVc/hqdefault.jpg) 50% 50% / cover;border:0;height:100%;left:0;position:absolute;width:100%" src="https://www.youtube.com/embed/b0ZD4wyoNVc"></iframe></div></div><br>
<br>
<span style="font-size: 18px"><b>Track list</b></span><br>
<ol>
<li>"Movie Star" - 3:08</li>
<li>"Miss You (보고싶어)" - 4:05</li>
</ol>
<div class="bbCodeBlock bbCodeVfcHH HiddenContent">
<div class="attribution type">Hidden Content:</div>
<blockquote>You must either reply or click 'Like' to see the hidden information contained here.</blockquote>
</div>
<div class="messageTextEndMarker">&nbsp;</div>
</blockquote>
</article>]]></description>
                <author><![CDATA[Eric Lyn]]></author>
                </item>

                
                <item>
                <title><![CDATA[【Requests】[REQ AUD] - Discografia da Sandy]]></title>
                <link><![CDATA[https://sharemania.us/threads/discografia-da-sandy.221656/]]></link>
                <description><![CDATA[<article>
<blockquote class="messageText SelectQuoteContainer ugc baseHtml">
Será que alguém poderia disponibilizar os álbuns da Sandy (carreira solo mesmo) por aqui?
<div class="messageTextEndMarker">&nbsp;</div>
</blockquote>
</article>]]></description>
                <author><![CDATA[SandyLeahLima]]></author>
                </item>

                
                <item>
                <title><![CDATA[【HD Live Performances】WEB-RiP - Lewis Capaldi - BBC Radio 1's Big Weekend 2023 - Dundee (2023-05-28) WEB-RiP 1080p-50fps-TPF HDMania]]></title>
                <link><![CDATA[https://sharemania.us/threads/lewis-capaldi-bbc-radio-1s-big-weekend-2023-dundee-2023-05-28-web-rip-1080p-50fps-tpf-hdmania.221646/]]></link>
                <description><![CDATA[<article>
<blockquote class="messageText SelectQuoteContainer ugc baseHtml">
<div style="text-align: center"><img src="https://i.postimg.cc/Xqypm1r4/BBC-Radio-1-s-Big-Weekend-2023-Dundee-LEWIS-CAPALDI-Banner.png" class="bbCodeImage LbImage" alt="[​IMG]" data-url="https://i.postimg.cc/Xqypm1r4/BBC-Radio-1-s-Big-Weekend-2023-Dundee-LEWIS-CAPALDI-Banner.png" style=""><br>
<b><span style="font-size: 18px">Lewis Capaldi - BBC Radio 1's Big Weekend 2023 - Dundee (2023-05-28) WEB-RiP 1080p-50fps-TPF HDMania</span></b><br>
<span style="font-size: 12px"><i>Lewis Capaldi takes to the main stage to close Radio 1' Big Weekend in Dundee.</i></span><br>
<img src="https://i.postimg.cc/9fSBqz7f/BBC-Radio-1-s-Big-Weekend-2023-Dundee-ZARA-LARSSON-Half-Banner.png" class="bbCodeImage LbImage" alt="[​IMG]" data-url="https://i.postimg.cc/9fSBqz7f/BBC-Radio-1-s-Big-Weekend-2023-Dundee-ZARA-LARSSON-Half-Banner.png" style=""><br>
<img src="https://i.postimg.cc/Pq9jxqLd/Lewis-Capaldi-BBC-Radio-1-s-Big-Weekend-2023-Dundee-2023-05-28-WEB-Ri-P-1080p-50fps-TPF-HDMania.jpg" class="bbCodeImage LbImage" alt="[​IMG]" data-url="https://i.postimg.cc/Pq9jxqLd/Lewis-Capaldi-BBC-Radio-1-s-Big-Weekend-2023-Dundee-2023-05-28-WEB-Ri-P-1080p-50fps-TPF-HDMania.jpg" style=""><br>
<img src="https://i.postimg.cc/BnVJbYtB/BBC-Radio-1-s-Big-Weekend-2023-Dundee-WEB-Ri-P-1080p-50fps-TPF-HDMania-00.jpg" class="bbCodeImage LbImage" alt="[​IMG]" data-url="https://i.postimg.cc/BnVJbYtB/BBC-Radio-1-s-Big-Weekend-2023-Dundee-WEB-Ri-P-1080p-50fps-TPF-HDMania-00.jpg" style=""><br>
<img src="https://i.postimg.cc/XvTRWDhJ/Lewis-Capaldi-BBC-Radio-1-s-Big-Weekend-2023-Dundee-2023-05-28-WEB-Ri-P-1080p-50fps-TPF-HDMania.jpg" class="bbCodeImage LbImage" alt="[​IMG]" data-url="https://i.postimg.cc/XvTRWDhJ/Lewis-Capaldi-BBC-Radio-1-s-Big-Weekend-2023-Dundee-2023-05-28-WEB-Ri-P-1080p-50fps-TPF-HDMania.jpg" style="">
<div class="ToggleTriggerAnchor bbCodeSpoilerContainer">
<button type="button" class="button bbCodeSpoilerButton ToggleTrigger Tooltip JsOnly" data-target="> .SpoilerTarget"><span>Spoiler: <span class="SpoilerTitle">MediaInfo.</span></span></button>
<div class="SpoilerTarget bbCodeSpoilerText">Size : 4.306 GB<br>
Duration : 01:06:22.03<br>
Mux type : MP4<br>
<b>Video:</b><br>
Encoding : H.264<br>
VideoStreamID : x201<br>
Frame rate : 50.00 fps<br>
Encoding size : 1920 x 1080<br>
Aspect ratio : 16:9<br>
Header bit rate : 12.000 Mbps<br>
VBV buffer : 2928 KBytes<br>
Profile : High/4.2<br>
Progressive : Progressive<br>
Chroma : 4:2:0<br>
Entropy mode : CABAC<br>
Bit rate : 8.306 Mbps<br>
<b>Audio Stream: 1 (Primary)</b><br>
Codec : AAC<br>
Format : RAW<br>
Channels : 2.0<br>
Language : eng<br>
PID : x202<br>
PES Stream Id : xC0<br>
Sampling rate : 48000<br>
Sample size : 16 bit</div>
</div>
<div class="bbCodeBlock bbCodeVfcHH HiddenContent">
<div class="attribution type">Hidden Content:</div>
<blockquote>You must either reply or click 'Like' to see the hidden information contained here.</blockquote>
</div><b><span style="color: rgb(255, 0, 0)">Don't forget to <i>Like</i>, if you download...</span><br>
</b><br>
<span style="font-size: 15px">If you like, </span><i><span style="font-size: 15px">like</span></i><span style="font-size: 15px">... <img src="styles/default/xenforo/smilies/exciting-48.png" class="mceSmilie" alt=":D" title="Big Grin    :D">...I always </span><i><span style="font-size: 15px">like</span></i><span style="font-size: 15px">, back (if you leave a <i>reply</i>)... <img src="styles/default/xenforo/smilies/haha-48.png" class="mceSmilie" alt=":lol:" title="LOL    :lol:"><br>
<br>
Credit to the original capper/ripper: <i><b>Me</b></i></span>​</div>
<div class="messageTextEndMarker">&nbsp;</div>
</blockquote>
</article>]]></description>
                <author><![CDATA[ThePixelFarm]]></author>
                </item>

                
                <item>
                <title><![CDATA[【Cinema Center】MOVIE - The.Ledge.2022.1080p.HULU.WEB-DL.DDP5.1.H.264-Samuel]]></title>
                <link><![CDATA[https://sharemania.us/threads/the-ledge-2022-1080p-hulu-web-dl-ddp5-1-h-264-samuel.221657/]]></link>
                <description><![CDATA[<article>
<blockquote class="messageText SelectQuoteContainer ugc baseHtml">
<div style="text-align: center"><b><span style="font-size: 26px">The Ledge</span></b><br>
<img src="https://i.imgur.com/FYCpf6S.jpg" class="bbCodeImage LbImage" alt="[​IMG]" data-url="https://i.imgur.com/FYCpf6S.jpg" style=""><br>
<b><a href="https://i.imgur.com/UIiVudK.jpg" target="_blank" class="externalLink" rel="nofollow">Alternate Artwork 1</a></b> | <b><a href="https://i.imgur.com/SFF8v1K.jpg" target="_blank" class="externalLink" rel="nofollow">Alternate Artwork 2</a></b> | <b><a href="https://i.imgur.com/Rd26lQ1.jpg" target="_blank" class="externalLink" rel="nofollow">Poster</a></b> | <b><a href="https://i.imgur.com/Z8ZDIj2.jpg" target="_blank" class="externalLink" rel="nofollow">Key Art</a></b><br>
<br>
<b>Starring:</b> Brittany Ashworth, Ben Lamb, Louis Boyer • <b>Director:</b> Howard J. Ford<br>
<br>
<div class="bbCodeBlock bbCodeQuote">
<aside>
<blockquote class="quoteContainer"><div class="quote"><b><span style="font-size: 15px"><span style="font-family: 'Arial'">Description</span></span></b><br>
A rock-climbing adventure turns into a terrifying nightmare, when Kelly captures the murder of her best friend on camera and becomes the next target of a desperate group of friends who will stop at nothing to destroy the evidence.</div><div class="quoteExpand">Click to expand...</div></blockquote>
</aside>
</div>
<div class="bbCodeBlock bbCodeQuote">
<aside>
<blockquote class="quoteContainer"><div class="quote"><b><span style="font-size: 15px"><span style="font-family: 'Arial'">More Information</span></span><br>
Starring:</b> Brittany Ashworth, Ben Lamb, Louis Boyer, Nathan Welsh, Anaïs Parello<br>
<b>Director:</b> Howard J. Ford<br>
<br>
R • Thriller, Adventure • Movie • 2022 • 5.1 • HD</div><div class="quoteExpand">Click to expand...</div></blockquote>
</aside>
</div>
<div class="bbCodeBlock bbCodeQuote">
<aside>
<blockquote class="quoteContainer"><div class="quote"><b><span style="font-size: 15px">Source</span></b><br>
<img src="https://i.imgur.com/4uiLEFv.png" class="bbCodeImage LbImage" alt="[​IMG]" data-url="https://i.imgur.com/4uiLEFv.png" style=""></div><div class="quoteExpand">Click to expand...</div></blockquote>
</aside>
</div>
<div class="bbCodeBlock bbCodeQuote">
<aside>
<blockquote class="quoteContainer"><div class="quote"><b><span style="font-size: 15px">Release Name</span></b><br>
The.Ledge.2022.1080p.HULU.WEB-DL.DDP5.1.H.264-Samuel</div><div class="quoteExpand">Click to expand...</div></blockquote>
</aside>
</div>
<div class="ToggleTriggerAnchor bbCodeSpoilerContainer">
<button type="button" class="button bbCodeSpoilerButton ToggleTrigger Tooltip JsOnly" data-target="> .SpoilerTarget"><span>Spoiler: <span class="SpoilerTitle">Media Information</span></span></button>
<div class="SpoilerTarget bbCodeSpoilerText">General<br>
Complete name : The.Ledge.2022.1080p.HULU.WEB-DL.DDP5.1.H.264-Samuel.mkv<br>
Format : Matroska<br>
Format version : Version 4<br>
File size : 2.37 GiB<br>
Duration : 1 h 26 min<br>
Overall bit rate : 3 907 kb/s<br>
Frame rate : 23.976 FPS<br>
Encoded date : 2023-05-13 09:15:30 UTC<br>
Writing application : mkvmerge v72.0.0 ('Minuano (Six-eight)') 64-bit<br>
Writing library : libebml v1.4.4 + libmatroska v1.7.1<br>
<br>
Video<br>
ID : 1<br>
Format : AVC<br>
Format/Info : Advanced Video Codec<br>
Format profile : High@L4<br>
Format settings : CABAC / 4 Ref Frames<br>
Format settings, CABAC : Yes<br>
Format settings, Reference frames : 4 frames<br>
Codec ID : V_MPEG4/ISO/AVC<br>
Duration : 1 h 26 min<br>
Bit rate : 3 650 kb/s<br>
Width : 1 920 pixels<br>
Height : 1 080 pixels<br>
Display aspect ratio : 16:9<br>
Frame rate mode : Constant<br>
Frame rate : 23.976 (24000/1001) FPS<br>
Color space : YUV<br>
Chroma subsampling : 4:2:0<br>
Bit depth : 8 bits<br>
Scan type : Progressive<br>
Bits/(Pixel*Frame) : 0.073<br>
Stream size : 2.21 GiB (93%)<br>
Default : Yes<br>
Forced : No<br>
<br>
Audio<br>
ID : 2<br>
Format : E-AC-3<br>
Format/Info : Enhanced AC-3<br>
Commercial name : Dolby Digital Plus<br>
Codec ID : A_EAC3<br>
Duration : 1 h 26 min<br>
Bit rate mode : Constant<br>
Bit rate : 256 kb/s<br>
Channel(s) : 6 channels<br>
Channel layout : L R C LFE Ls Rs<br>
Sampling rate : 48.0 kHz<br>
Frame rate : 31.250 FPS (1536 SPF)<br>
Compression mode : Lossy<br>
Stream size : 159 MiB (7%)<br>
Language : English<br>
Service kind : Complete Main<br>
Default : Yes<br>
Forced : No<br>
<br>
Text<br>
ID : 3<br>
Format : UTF-8<br>
Codec ID : S_TEXT/UTF8<br>
Codec ID/Info : UTF-8 Plain Text<br>
Duration : 1 h 19 min<br>
Bit rate : 45 b/s<br>
Frame rate : 0.204 FPS<br>
Count of elements : 980<br>
Stream size : 26.7 KiB (0%)<br>
Title : SDH<br>
Language : English<br>
Default : No<br>
Forced : No<br>
<br>
Menu<br>
01:21:10.021 : en:Credits</div>
</div><br>
<b>Screenshots</b><br>
<img src="https://i.imgur.com/h2FETMI.png" class="bbCodeImage LbImage" alt="[​IMG]" data-url="https://i.imgur.com/h2FETMI.png" style=""><br>
<br>
<b>Download</b><br>
<div class="bbCodeBlock bbCodeVfcHH HiddenContent">
<div class="attribution type">Hidden Content:</div>
<blockquote>You must reply before you can see the hidden data contained here.</blockquote>
</div></div>
<div class="messageTextEndMarker">&nbsp;</div>
</blockquote>
</article>]]></description>
                <author><![CDATA[Samuel]]></author>
                </item>

                
                <item>
                <title><![CDATA[【Singles (lossless)】FLAC - BTS - The Planet (FLAC 16bits/44.1kHz)]]></title>
                <link><![CDATA[https://sharemania.us/threads/bts-the-planet-flac-16bits-44-1khz.221650/]]></link>
                <description><![CDATA[<article>
<blockquote class="messageText SelectQuoteContainer ugc baseHtml">
<img src="https://images2.imgbox.com/5c/5a/nap1y9h9_o.jpg" class="bbCodeImage LbImage" alt="[​IMG]" data-url="https://images2.imgbox.com/5c/5a/nap1y9h9_o.jpg" style=""> <br>
<br>
<div data-s9e-mediaembed="youtube" style="display:inline-block;width:100%;max-width:640px"><div style="overflow:hidden;position:relative;padding-bottom:56.25%"><iframe allowfullscreen="" scrolling="no" style="background:url(https://i.ytimg.com/vi/YLP74PguS-U/hqdefault.jpg) 50% 50% / cover;border:0;height:100%;left:0;position:absolute;width:100%" src="https://www.youtube.com/embed/YLP74PguS-U"></iframe></div></div><br>
<br>
<div class="bbCodeBlock bbCodeVfcHH HiddenContent">
<div class="attribution type">Hidden Content:</div>
<blockquote>You must either reply or click 'Like' to see the hidden information contained here.</blockquote>
</div>
<div class="messageTextEndMarker">&nbsp;</div>
</blockquote>
</article>]]></description>
                <author><![CDATA[Eric Lyn]]></author>
                </item>

                
                <item>
                <title><![CDATA[【Requests】[REQ AUD] - "Uncut" by Table]]></title>
                <link><![CDATA[https://sharemania.us/threads/uncut-by-table.221655/]]></link>
                <description><![CDATA[<article>
<blockquote class="messageText SelectQuoteContainer ugc baseHtml">
<a href="https://www.qobuz.com/dk-en/album/uncut-table/0191773627607" target="_blank" class="externalLink" rel="nofollow">https://www.qobuz.com/dk-en/album/uncut-table/0191773627607</a><br>
<br>
Thanks..!
<div class="messageTextEndMarker">&nbsp;</div>
</blockquote>
</article>]]></description>
                <author><![CDATA[sohcahtoa]]></author>
                </item>

                
                <item>
                <title><![CDATA[【Requests】[REQ AUD] - The Little Mermaid]]></title>
                <link><![CDATA[https://sharemania.us/threads/the-little-mermaid.221653/]]></link>
                <description><![CDATA[<article>
<blockquote class="messageText SelectQuoteContainer ugc baseHtml">
<a href="https://music.apple.com/us/album/the-little-mermaid-2023-korean-original-motion/1688763125" target="_blank" class="externalLink" rel="nofollow">https://music.apple.com/us/album/the-little-mermaid-2023-korean-original-motion/1688763125</a><br>
<br>
Could someone please share a zip in mp3 320?<br>
<br>
Also the italian version of the soundtrack if possible
<div class="messageTextEndMarker">&nbsp;</div>
</blockquote>
</article>]]></description>
                <author><![CDATA[Auroraofmusicmoon]]></author>
                </item>

                
                <item>
                <title><![CDATA[【Albums (lossless)】FLAC - ENHYPEN - DARK BLOOD (FLAC 24bits/44.1kHz)]]></title>
                <link><![CDATA[https://sharemania.us/threads/enhypen-dark-blood-flac-24bits-44-1khz.221652/]]></link>
                <description><![CDATA[<article>
<blockquote class="messageText SelectQuoteContainer ugc baseHtml">
<img src="https://images2.imgbox.com/03/15/CfaKJmIB_o.jpg" class="bbCodeImage LbImage" alt="[​IMG]" data-url="https://images2.imgbox.com/03/15/CfaKJmIB_o.jpg" style=""> <br>
<br>
<i><b>Dark Blood</b></i> (stylized in all-caps) is the fourth mini album by <a href="https://kpop.fandom.com/wiki/ENHYPEN" target="_blank" class="externalLink" rel="nofollow">ENHYPEN</a>. It was released on May 22, 2023 with "Bite Me" serving as the album's title track.<br>
<br>
<div data-s9e-mediaembed="youtube" style="display:inline-block;width:100%;max-width:640px"><div style="overflow:hidden;position:relative;padding-bottom:56.25%"><iframe allowfullscreen="" scrolling="no" style="background:url(https://i.ytimg.com/vi/wXFLzODIdUI/hqdefault.jpg) 50% 50% / cover;border:0;height:100%;left:0;position:absolute;width:100%" src="https://www.youtube.com/embed/wXFLzODIdUI"></iframe></div></div><br>
<br>
<span style="font-size: 18px"><b>Track list</b></span><br>
<ol>
<li>"Fate" - 2:31</li>
<li>"Bite Me" - 2:37</li>
<li>"Sacrifice (Eat Me Up)" - 3:32</li>
<li>"Chaconne" - 3:33</li>
<li>"Bills" - 2:55</li>
<li>"Karma" - 3:12</li>
</ol><br>
<div class="bbCodeBlock bbCodeVfcHH HiddenContent">
<div class="attribution type">Hidden Content:</div>
<blockquote>You must either reply or click 'Like' to see the hidden information contained here.</blockquote>
</div>
<div class="messageTextEndMarker">&nbsp;</div>
</blockquote>
</article>]]></description>
                <author><![CDATA[Eric Lyn]]></author>
                </item>

                
                <item>
                <title><![CDATA[【Requests】[REQ AUD] - Girls Aloud/Sugababes mashups and rare remixes]]></title>
                <link><![CDATA[https://sharemania.us/threads/girls-aloud-sugababes-mashups-and-rare-remixes.221658/]]></link>
                <description><![CDATA[<article>
<blockquote class="messageText SelectQuoteContainer ugc baseHtml">
I have most every official remix or version of most songs but I know my list isn't completed. A lot of AI songs floating around and rare variations of some songs and mash ups.<br>
<br>
Thanks I'll take whatever you have in your library that hasn't been uploaded into either discographies on here. Thx it's worth a shot than searching and making LQ YouTube rips.
<div class="messageTextEndMarker">&nbsp;</div>
</blockquote>
</article>]]></description>
                <author><![CDATA[joeyczen]]></author>
                </item>

                
                <item>
                <title><![CDATA[【Requests】[REQ VID] - Cannons - Live from Coachella 2023, Gobi Stage, Day 4]]></title>
                <link><![CDATA[https://sharemania.us/threads/cannons-live-from-coachella-2023-gobi-stage-day-4.221644/]]></link>
                <description><![CDATA[<article>
<blockquote class="messageText SelectQuoteContainer ugc baseHtml">
<b>Cannons - Live from Coachella 2023</b>
<div class="messageTextEndMarker">&nbsp;</div>
</blockquote>
</article>]]></description>
                <author><![CDATA[Gizmo234]]></author>
                </item>

                
                <item>
                <title><![CDATA[【HD Live Performances】MASTER - Sabrina Carpenter - Skin (Late Late Show with James Corden 2021) AAC Master-1080p]]></title>
                <link><![CDATA[https://sharemania.us/threads/sabrina-carpenter-skin-late-late-show-with-james-corden-2021-aac-master-1080p.221648/]]></link>
                <description><![CDATA[<article>
<blockquote class="messageText SelectQuoteContainer ugc baseHtml">
<img src="https://images2.imgbox.com/ed/3f/kkpXDpfK_o.jpg" class="bbCodeImage LbImage" alt="[​IMG]" data-url="https://images2.imgbox.com/ed/3f/kkpXDpfK_o.jpg" style=""><img src="https://images2.imgbox.com/6c/9d/NWTw439m_o.jpg" class="bbCodeImage LbImage" alt="[​IMG]" data-url="https://images2.imgbox.com/6c/9d/NWTw439m_o.jpg" style=""><br>
<br>
<div class="ToggleTriggerAnchor bbCodeSpoilerContainer">
<button type="button" class="button bbCodeSpoilerButton ToggleTrigger Tooltip JsOnly" data-target="> .SpoilerTarget"><span>Spoiler: <span class="SpoilerTitle">MediaInfo</span></span></button>
<div class="SpoilerTarget bbCodeSpoilerText">Format : MPEG-4<br>
Format profile : Base Media / Version 2<br>
Codec ID : mp42 (mp42/mp41)<br>
File size : 845 MiB<br>
Duration : 2 min 57 s<br>
Overall bit rate mode : Variable<br>
Overall bit rate : 40.1 Mb/s<br>
Encoded date : UTC 2021-02-09 06:20:23<br>
Tagged date : UTC 2021-02-09 06:20:54<br>
TIM : 00:00:00:00<br>
TSC : 24000<br>
TSZ : 1001<br>
Video<br>
ID : 1<br>
Format : AVC<br>
Format/Info : Advanced Video Codec<br>
Format profile : Main@L4.1<br>
Format settings : CABAC / 4 Ref Frames<br>
Format settings, CABAC : Yes<br>
Format settings, Reference : 4 frames<br>
Codec ID : avc1<br>
Codec ID/Info : Advanced Video Coding<br>
Duration : 2 min 57 s<br>
Bit rate : 39.7 Mb/s<br>
Width : 1 920 pixels<br>
Height : 1 080 pixels<br>
Display aspect ratio : 16:9<br>
Frame rate mode : Constant<br>
Frame rate : 23.976 (24000/1001) FPS<br>
Color space : YUV<br>
Chroma subsampling : 4:2:0<br>
Bit depth : 8 bits<br>
Scan type : Progressive<br>
Bits/(Pixel*Frame) : 0.799<br>
Stream size : 839 MiB (99%)<br>
Language : English<br>
Encoded date : UTC 2021-02-09 06:20:23<br>
Tagged date : UTC 2021-02-09 06:20:23<br>
Color range : Limited<br>
Color primaries : BT.709<br>
Transfer characteristics : BT.709<br>
Matrix coefficients : BT.709<br>
Codec configuration box : avcC<br>
Audio<br>
ID : 2<br>
Format : AAC LC<br>
Format/Info : Advanced Audio Codec Low Complexity<br>
Codec ID : mp4a-40-2<br>
Duration : 2 min 57 s<br>
Source duration : 2 min 57 s<br>
Bit rate mode : Variable<br>
Bit rate : 317 kb/s<br>
Maximum bit rate : 451 kb/s<br>
Channel(s) : 2 channels<br>
Channel layout : L R<br>
Sampling rate : 48.0 kHz<br>
Frame rate : 46.875 FPS (1024 SPF)<br>
Compression mode : Lossy<br>
Stream size : 6.70 MiB (1%)<br>
Source stream size : 6.70 MiB (1%)<br>
Language : English<br>
Encoded date : UTC 2021-02-09 06:20:23<br>
Tagged date : UTC 2021-02-09 06:20:23</div>
</div>
<div class="bbCodeBlock bbCodeVfcHH HiddenContent">
<div class="attribution type">Hidden Content:</div>
<blockquote>You must either reply or click 'Like' to see the hidden information contained here.</blockquote>
</div>
<div class="messageTextEndMarker">&nbsp;</div>
</blockquote>
</article>]]></description>
                <author><![CDATA[ianarturis]]></author>
                </item>

                
                <item>
                <title><![CDATA[【HD Live Performances】MASTER - Sabrina Carpenter - Skin (GLAAD Media Awards 2021) (PCM ProRes-1080p)]]></title>
                <link><![CDATA[https://sharemania.us/threads/sabrina-carpenter-skin-glaad-media-awards-2021-pcm-prores-1080p.221647/]]></link>
                <description><![CDATA[<article>
<blockquote class="messageText SelectQuoteContainer ugc baseHtml">
<img src="https://images2.imgbox.com/70/04/H3IpbKlT_o.jpg" class="bbCodeImage LbImage" alt="[​IMG]" data-url="https://images2.imgbox.com/70/04/H3IpbKlT_o.jpg" style=""><img src="https://images2.imgbox.com/5e/f9/mBei0SPB_o.jpg" class="bbCodeImage LbImage" alt="[​IMG]" data-url="https://images2.imgbox.com/5e/f9/mBei0SPB_o.jpg" style=""><br>
<br>
<div class="ToggleTriggerAnchor bbCodeSpoilerContainer">
<button type="button" class="button bbCodeSpoilerButton ToggleTrigger Tooltip JsOnly" data-target="> .SpoilerTarget"><span>Spoiler: <span class="SpoilerTitle">MediaInfo</span></span></button>
<div class="SpoilerTarget bbCodeSpoilerText">Format : MPEG-4<br>
Format profile : QuickTime<br>
Codec ID : qt 2005.03 (qt )<br>
File size : 3.68 GiB<br>
Duration : 2 min 59 s<br>
Overall bit rate mode : Variable<br>
Overall bit rate : 176 Mb/s<br>
Encoded date : UTC 2021-03-30 18:04:53<br>
Tagged date : UTC 2021-03-30 18:10:47<br>
Writing library : Apple QuickTime<br>
TIM : 00:00:00:00<br>
TSC : 24000<br>
TSZ : 1001<br>
Video<br>
ID : 1<br>
Format : ProRes<br>
Format version : Version 0<br>
Format profile : 422 HQ<br>
Codec ID : apch<br>
Duration : 2 min 59 s<br>
Bit rate mode : Variable<br>
Bit rate : 174 Mb/s<br>
Width : 1 920 pixels<br>
Height : 1 080 pixels<br>
Display aspect ratio : 16:9<br>
Frame rate mode : Constant<br>
Frame rate : 23.976 (24000/1001) FPS<br>
Color space : YUV<br>
Chroma subsampling : 4:2:2<br>
Scan type : Progressive<br>
Bits/(Pixel*Frame) : 3.500<br>
Stream size : 3.64 GiB (99%)<br>
Writing library : Apple<br>
Language : English<br>
Encoded date : UTC 2021-03-30 18:04:53<br>
Tagged date : UTC 2021-03-30 18:04:53<br>
Color primaries : BT.709<br>
Transfer characteristics : BT.709<br>
Matrix coefficients : BT.709<br>
Audio<br>
ID : 2<br>
Format : PCM<br>
Format settings : Little / Signed<br>
Codec ID : sowt<br>
Duration : 2 min 59 s<br>
Bit rate mode : Constant<br>
Bit rate : 1 536 kb/s<br>
Channel(s) : 2 channels<br>
Channel layout : L R<br>
Sampling rate : 48.0 kHz<br>
Bit depth : 16 bits<br>
Stream size : 32.9 MiB (1%)<br>
Language : English<br>
Encoded date : UTC 2021-03-30 18:04:53<br>
Tagged date : UTC 2021-03-30 18:04:53<br>
Other<br>
ID : 3<br>
Type : Time code<br>
Format : QuickTime TC<br>
Duration : 2 min 59 s<br>
Frame rate : 23.976 (24000/1001) FPS<br>
Time code of first frame : 00:00:00:00<br>
Time code, striped : Yes<br>
Language : English<br>
Encoded date : UTC 2021-03-30 18:04:53<br>
Tagged date : UTC 2021-03-30 18:04:53</div>
</div>
<div class="bbCodeBlock bbCodeVfcHH HiddenContent">
<div class="attribution type">Hidden Content:</div>
<blockquote>You must either reply or click 'Like' to see the hidden information contained here.</blockquote>
</div>
<div class="messageTextEndMarker">&nbsp;</div>
</blockquote>
</article>]]></description>
                <author><![CDATA[ianarturis]]></author>
                </item>

                
                <item>
                <title><![CDATA[【HD Live Performances】WEB-RiP - Cat Burns - BBC Radio 1's Big Weekend 2023 - Dundee (2023-05-28) WEB-RiP 1080p-50fps-TPF HDMania]]></title>
                <link><![CDATA[https://sharemania.us/threads/cat-burns-bbc-radio-1s-big-weekend-2023-dundee-2023-05-28-web-rip-1080p-50fps-tpf-hdmania.221643/]]></link>
                <description><![CDATA[<article>
<blockquote class="messageText SelectQuoteContainer ugc baseHtml">
<div style="text-align: center"><img src="https://i.postimg.cc/BnQVHGDk/BBC-Radio-1-s-Big-Weekend-2023-Dundee-CAT-BURNS-Banner.png" class="bbCodeImage LbImage" alt="[​IMG]" data-url="https://i.postimg.cc/BnQVHGDk/BBC-Radio-1-s-Big-Weekend-2023-Dundee-CAT-BURNS-Banner.png" style=""><br>
<b><span style="font-size: 18px">Cat Burns - BBC Radio 1's Big Weekend 2023 - Dundee (2023-05-28) WEB-RiP 1080p-50fps-TPF HDMania</span></b><br>
<span style="font-size: 12px"><i>The South London singer-songwriter performs a set of genre-blending pop.</i></span><br>
<img src="https://i.postimg.cc/9fSBqz7f/BBC-Radio-1-s-Big-Weekend-2023-Dundee-ZARA-LARSSON-Half-Banner.png" class="bbCodeImage LbImage" alt="[​IMG]" data-url="https://i.postimg.cc/9fSBqz7f/BBC-Radio-1-s-Big-Weekend-2023-Dundee-ZARA-LARSSON-Half-Banner.png" style=""><br>
<img src="https://i.postimg.cc/wjpR1fdt/Cat-Burns-BBC-Radio-1-s-Big-Weekend-2023-Dundee-2023-05-28-WEB-Ri-P-1080p-50fps-TPF-HDMania-0.jpg" class="bbCodeImage LbImage" alt="[​IMG]" data-url="https://i.postimg.cc/wjpR1fdt/Cat-Burns-BBC-Radio-1-s-Big-Weekend-2023-Dundee-2023-05-28-WEB-Ri-P-1080p-50fps-TPF-HDMania-0.jpg" style=""><br>
<img src="https://i.postimg.cc/BnVJbYtB/BBC-Radio-1-s-Big-Weekend-2023-Dundee-WEB-Ri-P-1080p-50fps-TPF-HDMania-00.jpg" class="bbCodeImage LbImage" alt="[​IMG]" data-url="https://i.postimg.cc/BnVJbYtB/BBC-Radio-1-s-Big-Weekend-2023-Dundee-WEB-Ri-P-1080p-50fps-TPF-HDMania-00.jpg" style=""><br>
<img src="https://i.postimg.cc/zGxDq0DY/Cat-Burns-BBC-Radio-1-s-Big-Weekend-2023-Dundee-2023-05-28-WEB-Ri-P-1080p-50fps-TPF-HDMania.jpg" class="bbCodeImage LbImage" alt="[​IMG]" data-url="https://i.postimg.cc/zGxDq0DY/Cat-Burns-BBC-Radio-1-s-Big-Weekend-2023-Dundee-2023-05-28-WEB-Ri-P-1080p-50fps-TPF-HDMania.jpg" style="">
<div class="ToggleTriggerAnchor bbCodeSpoilerContainer">
<button type="button" class="button bbCodeSpoilerButton ToggleTrigger Tooltip JsOnly" data-target="> .SpoilerTarget"><span>Spoiler: <span class="SpoilerTitle">MediaInfo.</span></span></button>
<div class="SpoilerTarget bbCodeSpoilerText">Size : 1.649 GB<br>
Duration : 00:21:31.11<br>
Mux type : MP4<br>
<b>Video:</b><br>
Encoding : H.264<br>
VideoStreamID : x201<br>
Frame rate : 50.00 fps<br>
Encoding size : 1920 x 1080<br>
Aspect ratio : 16:9<br>
Header bit rate : 12.000 Mbps<br>
VBV buffer : 2928 KBytes<br>
Profile : High/4.2<br>
Progressive : Progressive<br>
Chroma : 4:2:0<br>
Entropy mode : CABAC<br>
Bit rate : 9.809 Mbps<br>
<b>Audio Stream: 1 (Primary)</b><br>
Codec : AAC<br>
Format : RAW<br>
Channels : 2.0<br>
Language : eng<br>
PID : x202<br>
PES Stream Id : xC0<br>
Sampling rate : 48000<br>
Sample size : 16 bit</div>
</div>
<div class="bbCodeBlock bbCodeVfcHH HiddenContent">
<div class="attribution type">Hidden Content:</div>
<blockquote>You must either reply or click 'Like' to see the hidden information contained here.</blockquote>
</div><b><span style="color: rgb(255, 0, 0)">Don't forget to <i>Like</i>, if you download...</span><br>
</b><br>
<span style="font-size: 15px">If you like, </span><i><span style="font-size: 15px">like</span></i><span style="font-size: 15px">... <img src="styles/default/xenforo/smilies/exciting-48.png" class="mceSmilie" alt=":D" title="Big Grin    :D">...I always </span><i><span style="font-size: 15px">like</span></i><span style="font-size: 15px">, back (if you leave a <i>reply</i>)... <img src="styles/default/xenforo/smilies/haha-48.png" class="mceSmilie" alt=":lol:" title="LOL    :lol:"><br>
<br>
Credit to the original capper/ripper: <i><b>Me</b></i></span>​</div>
<div class="messageTextEndMarker">&nbsp;</div>
</blockquote>
</article>]]></description>
                <author><![CDATA[ThePixelFarm]]></author>
                </item>

                
                <item>
                <title><![CDATA[【Interviews / TV shows / Others】FEED - Britain's Got Talent: Series 16 Episode 9: Live Show 1 (29/5/23) (1080i) (Feed) [MAVERICK]]]></title>
                <link><![CDATA[https://sharemania.us/threads/britains-got-talent-series-16-episode-9-live-show-1-29-5-23-1080i-feed-maverick.221664/]]></link>
                <description><![CDATA[<article>
<blockquote class="messageText SelectQuoteContainer ugc baseHtml">
<div style="text-align: center"><b>Britain's Got Talent: Series 16 Episode 9: Live Show 1 (29/5/23) (1080i) (Feed) [MAVERICK]</b><br>
<br>
<img src="https://i.imgur.com/vjyGtQf.jpeg" class="bbCodeImage LbImage" alt="[​IMG]" data-url="https://i.imgur.com/vjyGtQf.jpeg" style="">​</div><b>Satellite Details:</b><br>
<div class="bbCodeBlock bbCodeVfcHH HiddenContent">
<div class="attribution type">Hidden Content:</div>
<blockquote>You must either reply or click 'Like' to see the hidden information contained here.</blockquote>
</div><br>
<div style="text-align: center"><b>DOWNLOAD LINK COMING SOON</b><br>
<br>
<b>Please Note: This is the Unedited 1080i Feed, Enjoy <img src="styles/default/xenforo/smilies/big_smile-48.png" class="mceSmilie" alt=":)" title="Smile    :)"></b><br>
<br>
<b><b><b>Please Note This File Has Been uploaded to Gofile, because its free fast upload and download speeds Grab them while you can once they get deleted i wont Reupload it as i delete my recordings from my harddrive once they are uploaded!</b></b><br>
<br>
<b>Please Credit Me Maverick if you are going to upload my files elsewhere!</b></b><br>
<br>
<b>REMEMBER I CAPPED AND UPLOADED THIS FIRST BEFORE ANYONE ELSE AND I WANT CREDIT FOR THIS CAP AND UPLOAD!!</b>​</div>
<div class="messageTextEndMarker">&nbsp;</div>
</blockquote>
</article>]]></description>
                <author><![CDATA[UnitedReleases]]></author>
                </item>

                
                <item>
                <title><![CDATA[【Requests】[REQ AUD] - I Ain't Worried (Versions) by OneRepublic]]></title>
                <link><![CDATA[https://sharemania.us/threads/i-aint-worried-versions-by-onerepublic.221663/]]></link>
                <description><![CDATA[<article>
<blockquote class="messageText SelectQuoteContainer ugc baseHtml">
<span style="font-family: 'Georgia'">Hi !<br>
<br>
I'm looking for "<i><b>I Ain’t Worried (Versions)</b></i>" by <b>OneRepublic</b>, in any lossless format, please.<br>
</span><br>
<div style="text-align: center"><span style="font-family: 'Georgia'"><b><span style="text-decoration: underline">I Ain’t Worried (Versions)</span></b><br>
<img src="https://static.qobuz.com/images/covers/8a/ep/tl7vspx37ep8a_600.jpg" class="bbCodeImage LbImage" alt="[​IMG]" data-url="https://static.qobuz.com/images/covers/8a/ep/tl7vspx37ep8a_600.jpg" style=""> </span>​</div><span style="font-family: 'Georgia'"><i>1 - I Ain't Worried (Latin Version)</i><br>
<i>2 - I Ain’t Worried - Acoustic</i><br>
<i>3 - I Ain't Worried (Slowed + Reverb)</i><br>
<i>4 - I Ain't Worried (Sped Up)</i><br>
<i>5 - I Ain't Worried (Collins String Version)</i><br>
<i>6 - I Ain't Worried (Live from the MTV EMAs)</i><br>
<br>
<br>
<a href="https://www.qobuz.com/us-en/album/i-aint-worried-onerepublic/tl7vspx37ep8a" target="_blank" class="externalLink" rel="nofollow">https://www.qobuz.com/us-en/album/i-aint-worried-onerepublic/tl7vspx37ep8a</a><br>
<a href="https://tidal.com/browse/album/293321926" target="_blank" class="externalLink" rel="nofollow">https://tidal.com/browse/album/293321926</a><br>
<br>
<br>
Thanks in advance for your help</span>
<div class="messageTextEndMarker">&nbsp;</div>
</blockquote>
</article>]]></description>
                <author><![CDATA[Cristalex]]></author>
                </item>

                
                <item>
                <title><![CDATA[【Requests】[REQ AUD] - Colonel Les Claypool’s Fearless Flying Frog Brigad: Live Frogs: Sets 1 &amp; 2 (Live)]]></title>
                <link><![CDATA[https://sharemania.us/threads/colonel-les-claypool%E2%80%99s-fearless-flying-frog-brigad-live-frogs-sets-1-2-live.221645/]]></link>
                <description><![CDATA[<article>
<blockquote class="messageText SelectQuoteContainer ugc baseHtml">
Looking for this album by Les Claypool's Frog Brigade.<br>
<br>
I would appreciate the high quality files.<br>
<br>
Thank you!<br>
<br>
<br>
Live Frogs: Sets 1 &amp; 2 (Live)<br>
<br>
<a href="https://www.qobuz.com/gb-en/album/live-frogs-sets-1-2-colonel-les-claypools-fearless-flying-frog-brigade/njp24i8kyf47b" target="_blank" class="externalLink" rel="nofollow">https://www.qobuz.com/gb-en/album/l...ls-fearless-flying-frog-brigade/njp24i8kyf47b</a>
<div class="messageTextEndMarker">&nbsp;</div>
</blockquote>
</article>]]></description>
                <author><![CDATA[deltaembryo]]></author>
                </item>

                
                <item>
                <title><![CDATA[【Music Videos】Alan Walker - The Drum [4K HEVC 10-bit / PCM 24-bit]]]></title>
                <link><![CDATA[https://sharemania.us/threads/alan-walker-the-drum-4k-hevc-10-bit-pcm-24-bit.221654/]]></link>
                <description><![CDATA[<article>
<blockquote class="messageText SelectQuoteContainer ugc baseHtml">
<b><img src="https://images2.imgbox.com/95/36/G3yzRYtE_o.jpg" class="bbCodeImage LbImage" alt="[​IMG]" data-url="https://images2.imgbox.com/95/36/G3yzRYtE_o.jpg" style=""> <br>
<img src="https://images2.imgbox.com/21/d1/IA0pV3Qi_o.jpg" class="bbCodeImage LbImage" alt="[​IMG]" data-url="https://images2.imgbox.com/21/d1/IA0pV3Qi_o.jpg" style=""> <br>
<br>
Genre: <span style="color: #0059b3">Electronic</span> <br>
Style: <span style="color: #0059b3">Electro House, Dance-pop</span> <br>
Year: <span style="color: #0059b3">2022</span><br>
Video Source: <span style="color: #0059b3">Apple Music, thanks Brungor</span><br>
Audio Source: <span style="color: #0059b3">Qobuz Hi-Res 24-bit</span></b><br>
<br>
"<b>The Drum</b>" is a song produced by British-Norwegian record producer and DJ Alan Walker, with vocals by Stockholm-based singer-songwriter Kristin Carpenter. It's the fourth track on <i>Walkerverse, Pt. I</i><a href="https://alan-walker.fandom.com/wiki/Alan_Walker" target="_blank" class="externalLink" rel="nofollow">,</a> released on April 29, 2022, and the third track on <i>Walkerverse: Complete Edition</i>. The track was released on MER Recordings, and reached 1.5 million plays within its first four days of release.<br>
<br>
The music video for "The Drum" is produced by MER Content and directed and edited by Mads Neset, the man behind videos of Alan Walker’s ‘Man on the Moon’ and ‘Sweet Dreams’ from 2021. It premiered on YouTube on April 29, 2022. In the description Walker showed his excitement for the track and its significance in the world-building of his projects:<br>
<i><br>
"Hi Walkers, I am excited to bring you a new anthem that I believe will fuel your passions in life! The Drum represents the dawn of new adventures in the World of Walker. Let us welcome the future by hitting those drum beats together. Watch till the end for a little clue on what we have in store for this year."</i> - Alan<br>
<br>
As of May, 2023, "The Drum" has reached 18.3M total views and 327K likes on YouTube.<br>
<br>
<b>Release Info</b><br>
The video track is downloaded from Apple Music by Brungor, left as is (2160p HEVC 10-bit).<br>
The PCM track is lossless (Qobuz, HiRes 24-bit), edited and synced with Adobe Audition.<br>
The timed lyrics are synced and edited to match the music video.<br>
Enable the subtitles to see the lyrics.<br>
<br>
<div class="ToggleTriggerAnchor bbCodeSpoilerContainer">
<button type="button" class="button bbCodeSpoilerButton ToggleTrigger Tooltip JsOnly" data-target="> .SpoilerTarget"><span>Spoiler: <span class="SpoilerTitle">Media Info</span></span></button>
<div class="SpoilerTarget bbCodeSpoilerText">
<div class="bbCodeBlock bbCodeCode">
<div class="type">Code:</div>
<pre>Algemeen
Unique ID                                : 78159854402707666715497747322126539444 (0x3ACD0A57EFDF2F4C64F1B88686CD1AB4)
Volledige naam                           : Alan Walker - The Drum.mkv
Formaat                                  : Matroska
Formaatversie                            : Version 4 / Version 2
Bestandsgrootte                          : 316 MiB
Duur                                     : 3 min 7s
Totale bitrate                           : 14,1 Mb/s
Framerate                                : 24,000 FPS
Datum codering                           : 2023-05-28 23:27:45 UTC
Gebruikt programma                       : mkvmerge v76.0 ('Celebration') 64-bit
Gebruikte encoderbibliotheek             : libebml v1.4.4 + libmatroska v1.7.1
Hoes                                     : Yes
Attachments                              : cover.jpg

Video
ID                                       : 1
Formaat                                  : HEVC
Formaat/Info                             : High Efficiency Video Coding
Formaatprofiel                           : Main 10@L5@High
Codec-ID                                 : V_MPEGH/ISO/HEVC
Duur                                     : 3 min 7s
Bitrate                                  : 11,7 Mb/s
Breedte                                  : 3 840 pixels
Hoogte                                   : 1 572 pixels
Beeldverhouding                          : 2,40:1
Frameratemodus                           : Constant
Framerate                                : 24,000 FPS
Color space                              : YUV
Chroma subsampling                       : 4:2:0
Bit depth                                : 10 bits
Bits/(Pixel*Frame)                       : 0.081
Stroomgrootte                            : 263 MiB (83%)
Default                                  : Ja
Forced                                   : Nee
Color range                              : Limited
Color primaries                          : BT.709
Transfer characteristics                 : BT.709
Matrix coefficients                      : BT.709

Audio #1
ID                                       : 2
Formaat                                  : PCM
Formaatinstellingen                      : Little / Signed
Codec-ID                                 : A_PCM/INT/LIT
Duur                                     : 3 min 7s
Bitrate-modus                            : Constant
Bitrate                                  : 2 117 kb/s
Kanaal(en)                               : 2 kanalen
Samplerate                               : 44,1 kHz
Framerate                                : 25,000 FPS (1764 SPF)
Bit depth                                : 24 bits
Stroomgrootte                            : 47,4 MiB (15%)
Titel                                    : Lossless 24-bit
Taal                                     : Engels
Default                                  : Ja
Forced                                   : Nee

Audio #2
ID                                       : 3
Formaat                                  : AAC LC
Formaat/Info                             : Advanced Audio Codec Low Complexity
Codec-ID                                 : A_AAC-2
Duur                                     : 3 min 7s
Bitrate                                  : 255 kb/s
Kanaal(en)                               : 2 kanalen
Channel layout                           : L R
Samplerate                               : 48,0 kHz
Framerate                                : 46,875 FPS (1024 SPF)
Compression mode                         : Lossy
Stroomgrootte                            : 5,72 MiB (2%)
Taal                                     : Engels
Default                                  : Nee
Forced                                   : Nee

Tekst
ID                                       : 4
Formaat                                  : UTF-8
Codec-ID                                 : S_TEXT/UTF8
Codec-ID/Info                            : UTF-8 Plain Text
Duur                                     : 2 min 55s
Bitrate                                  : 96 b/s
Framerate                                : 0,285 FPS
Count of elements                        : 50
Stroomgrootte                            : 2,07 KiB (0%)
Titel                                    : Lyrics
Taal                                     : Engels
Default                                  : Nee
Forced                                   : Nee
</pre>
</div></div>
</div><br>
<div class="bbCodeBlock bbCodeVfcHH HiddenContent">
<div class="attribution type">Hidden Content:</div>
<blockquote>You must reply before you can see the hidden data contained here.</blockquote>
</div>
<div class="messageTextEndMarker">&nbsp;</div>
</blockquote>
</article>]]></description>
                <author><![CDATA[ADHDerby]]></author>
                </item>

                
                <item>
                <title><![CDATA[【HD Live Performances】WEB-RiP - RAYE - BBC Radio 1's Big Weekend 2023 - Dundee (2023-05-27) WEB-RiP 1080p-50fps-TPF HDMania]]></title>
                <link><![CDATA[https://sharemania.us/threads/raye-bbc-radio-1s-big-weekend-2023-dundee-2023-05-27-web-rip-1080p-50fps-tpf-hdmania.221641/]]></link>
                <description><![CDATA[<article>
<blockquote class="messageText SelectQuoteContainer ugc baseHtml">
<div style="text-align: center"><img src="https://i.postimg.cc/3JxHNL59/BBC-Radio-1-s-Big-Weekend-2023-Dundee-RAYE-Banner.png" class="bbCodeImage LbImage" alt="[​IMG]" data-url="https://i.postimg.cc/3JxHNL59/BBC-Radio-1-s-Big-Weekend-2023-Dundee-RAYE-Banner.png" style=""><br>
<b><span style="font-size: 18px">RAYE - BBC Radio 1's Big Weekend 2023 - Dundee (2023-05-27) WEB-RiP 1080p-50fps-TPF HDMania</span></b><br>
<span style="font-size: 12px"><i>The debut solo Big Weekend set for this South London singer-songwriter.</i></span><br>
<img src="https://i.postimg.cc/9fSBqz7f/BBC-Radio-1-s-Big-Weekend-2023-Dundee-ZARA-LARSSON-Half-Banner.png" class="bbCodeImage LbImage" alt="[​IMG]" data-url="https://i.postimg.cc/9fSBqz7f/BBC-Radio-1-s-Big-Weekend-2023-Dundee-ZARA-LARSSON-Half-Banner.png" style=""><br>
<img src="https://i.postimg.cc/zfRDxxx8/RAYE-BBC-Radio-1-s-Big-Weekend-2023-Dundee-2023-05-27-WEB-Ri-P-1080p-50fps-TPF-HDMania-0.jpg" class="bbCodeImage LbImage" alt="[​IMG]" data-url="https://i.postimg.cc/zfRDxxx8/RAYE-BBC-Radio-1-s-Big-Weekend-2023-Dundee-2023-05-27-WEB-Ri-P-1080p-50fps-TPF-HDMania-0.jpg" style=""><br>
<img src="https://i.postimg.cc/BnVJbYtB/BBC-Radio-1-s-Big-Weekend-2023-Dundee-WEB-Ri-P-1080p-50fps-TPF-HDMania-00.jpg" class="bbCodeImage LbImage" alt="[​IMG]" data-url="https://i.postimg.cc/BnVJbYtB/BBC-Radio-1-s-Big-Weekend-2023-Dundee-WEB-Ri-P-1080p-50fps-TPF-HDMania-00.jpg" style=""><br>
<img src="https://i.postimg.cc/65mNFd23/RAYE-BBC-Radio-1-s-Big-Weekend-2023-Dundee-2023-05-27-WEB-Ri-P-1080p-50fps-TPF-HDMania.jpg" class="bbCodeImage LbImage" alt="[​IMG]" data-url="https://i.postimg.cc/65mNFd23/RAYE-BBC-Radio-1-s-Big-Weekend-2023-Dundee-2023-05-27-WEB-Ri-P-1080p-50fps-TPF-HDMania.jpg" style="">
<div class="ToggleTriggerAnchor bbCodeSpoilerContainer">
<button type="button" class="button bbCodeSpoilerButton ToggleTrigger Tooltip JsOnly" data-target="> .SpoilerTarget"><span>Spoiler: <span class="SpoilerTitle">MediaInfo.</span></span></button>
<div class="SpoilerTarget bbCodeSpoilerText">Size : 3.262 GB<br>
Duration : 00:38:54.13<br>
Mux type : MP4<br>
<b>Video:</b><br>
Encoding : H.264<br>
VideoStreamID : x201<br>
Frame rate : 50.00 fps<br>
Encoding size : 1920 x 1080<br>
Aspect ratio : 16:9<br>
Header bit rate : 12.000 Mbps<br>
VBV buffer : 2928 KBytes<br>
Profile : High/4.2<br>
Progressive : Progressive<br>
Chroma : 4:2:0<br>
Entropy mode : CABAC<br>
Bit rate : 10.733 Mbps<br>
<b>Audio Stream: 1 (Primary)</b><br>
Codec : AAC<br>
Format : RAW<br>
Channels : 2.0<br>
Language : eng<br>
PID : x202<br>
PES Stream Id : xC0<br>
Sampling rate : 48000<br>
Sample size : 16 bit</div>
</div>
<div class="bbCodeBlock bbCodeVfcHH HiddenContent">
<div class="attribution type">Hidden Content:</div>
<blockquote>You must either reply or click 'Like' to see the hidden information contained here.</blockquote>
</div><b><span style="color: rgb(255, 0, 0)">Don't forget to <i>Like</i>, if you download...</span><br>
</b><br>
<span style="font-size: 15px">If you like, </span><i><span style="font-size: 15px">like</span></i><span style="font-size: 15px">... <img src="styles/default/xenforo/smilies/exciting-48.png" class="mceSmilie" alt=":D" title="Big Grin    :D">...I always </span><i><span style="font-size: 15px">like</span></i><span style="font-size: 15px">, back (if you leave a <i>reply</i>)... <img src="styles/default/xenforo/smilies/haha-48.png" class="mceSmilie" alt=":lol:" title="LOL    :lol:"><br>
<br>
Credit to the original capper/ripper: <i><b>Me</b></i></span>​</div>
<div class="messageTextEndMarker">&nbsp;</div>
</blockquote>
</article>]]></description>
                <author><![CDATA[ThePixelFarm]]></author>
                </item>

                
                <item>
                <title><![CDATA[【Albums (lossy)】PACK - Barbie Movies Soundtracks]]></title>
                <link><![CDATA[https://sharemania.us/threads/barbie-movies-soundtracks.221661/]]></link>
                <description><![CDATA[<article>
<blockquote class="messageText SelectQuoteContainer ugc baseHtml">
<b><i><span style="color: #ff99cc">Barbie Classic Movies Soundtracks (Mattel official)<br>
<img src="https://64.media.tumblr.com/92ee337e14d28b48dddeab43e2d6c63c/tumblr_owv2x3m7wD1u3tncxo1_1280.jpg" class="bbCodeImage LbImage" alt="[​IMG]" data-url="https://64.media.tumblr.com/92ee337e14d28b48dddeab43e2d6c63c/tumblr_owv2x3m7wD1u3tncxo1_1280.jpg" style=""> <br>
</span></i><br>
<span style="font-size: 15px"><span style="color: #ff4da6">Barbie Sings! The Princess Movie Song Collection</span></span></b><br>
<b><span style="font-size: 15px"><span style="color: #ff4da6"><img src="https://images.genius.com/beb3781adb50298c4b124c6a4db2de08.1000x1000x1.jpg" class="bbCodeImage LbImage" alt="[​IMG]" data-url="https://images.genius.com/beb3781adb50298c4b124c6a4db2de08.1000x1000x1.jpg" style=""> <br>
<div class="bbCodeBlock bbCodeVfcHH HiddenContent">
<div class="attribution type">Hidden Content:</div>
<blockquote>You must reply before you can see the hidden data contained here.</blockquote>
</div>Songs from Barbie Fairytopia<br>
<img src="https://i.scdn.co/image/ab67616d0000b273662004de50cad071c0f529cf" class="bbCodeImage LbImage" alt="[​IMG]" data-url="https://i.scdn.co/image/ab67616d0000b273662004de50cad071c0f529cf" style=""> <br>
<div class="bbCodeBlock bbCodeVfcHH HiddenContent">
<div class="attribution type">Hidden Content:</div>
<blockquote>You must reply before you can see the hidden data contained here.</blockquote>
</div>The Barbie diaries Movie Soundtrack<br>
<img src="https://static.wikia.nocookie.net/barbie-movies/images/2/21/The_Barbie_Diaries_-_Movie_Soundtrack.png/revision/latest/scale-to-width-down/770" class="bbCodeImage LbImage" alt="[​IMG]" data-url="https://static.wikia.nocookie.net/barbie-movies/images/2/21/The_Barbie_Diaries_-_Movie_Soundtrack.png/revision/latest/scale-to-width-down/770" style=""> <br>
<div class="bbCodeBlock bbCodeVfcHH HiddenContent">
<div class="attribution type">Hidden Content:</div>
<blockquote>You must reply before you can see the hidden data contained here.</blockquote>
</div>Barbie as The Island Princess<br>
All Your Favourite Songs From The Movie<br>
<img src="https://m.media-amazon.com/images/M/MV5BMjA2OGY0NGYtMWJmMS00MDQ3LThkMTAtNWQxMGVmZmM1ZGY0XkEyXkFqcGdeQXVyNDE5MTU2MDE@._V1_.jpg" class="bbCodeImage LbImage" alt="[​IMG]" data-url="https://m.media-amazon.com/images/M/MV5BMjA2OGY0NGYtMWJmMS00MDQ3LThkMTAtNWQxMGVmZmM1ZGY0XkEyXkFqcGdeQXVyNDE5MTU2MDE@._V1_.jpg" style=""> <br>
<div class="bbCodeBlock bbCodeVfcHH HiddenContent">
<div class="attribution type">Hidden Content:</div>
<blockquote>You must reply before you can see the hidden data contained here.</blockquote>
</div>Barbie &amp; The Diamond Castle<br>
Original Soundtrack<br>
<img src="https://i0.wp.com/katharinemcphee.net/wp-content/uploads/2014/03/barbie.jpg?resize=1426%2C1418&amp;ssl=1" class="bbCodeImage LbImage" alt="[​IMG]" data-url="https://i0.wp.com/katharinemcphee.net/wp-content/uploads/2014/03/barbie.jpg?resize=1426%2C1418&amp;ssl=1" style=""> <br>
<div class="bbCodeBlock bbCodeVfcHH HiddenContent">
<div class="attribution type">Hidden Content:</div>
<blockquote>You must reply before you can see the hidden data contained here.</blockquote>
</div><img src="https://m.media-amazon.com/images/I/71zeuqMlWNL._SL1500_.jpg" class="bbCodeImage LbImage" alt="[​IMG]" data-url="https://m.media-amazon.com/images/I/71zeuqMlWNL._SL1500_.jpg" style=""> <br>
Barbie in A Christmas Carol Soundtrack<br>
<div class="bbCodeBlock bbCodeVfcHH HiddenContent">
<div class="attribution type">Hidden Content:</div>
<blockquote>You must reply before you can see the hidden data contained here.</blockquote>
</div>____________________________</span><br>
<span style="color: #b300b3"><span style="text-decoration: underline">PASSWORD:</span> BarbieMusicXMe4EVER</span><br>
<span style="color: #ff4da6">____________________________</span></span></b>
<div class="messageTextEndMarker">&nbsp;</div>
</blockquote>
</article>]]></description>
                <author><![CDATA[saeedbarbie]]></author>
                </item>

                
                <item>
                <title><![CDATA[【Albums (lossless)】The Little Mermaid Deluxe Edition Soundtrack 2023 FLAC HiRes]]></title>
                <link><![CDATA[https://sharemania.us/threads/the-little-mermaid-deluxe-edition-soundtrack-2023-flac-hires.221660/]]></link>
                <description><![CDATA[<article>
<blockquote class="messageText SelectQuoteContainer ugc baseHtml">
Does anybody have the Deluxe Soundtrack in HiRes FLAC?
<div class="messageTextEndMarker">&nbsp;</div>
</blockquote>
</article>]]></description>
                <author><![CDATA[KevFS1993]]></author>
                </item>

                
                <item>
                <title><![CDATA[【Albums (lossless)】FLAC - [IA] Britney Spears - Deluxe Edition 50 Tracks (2023) [FLAC] [fan Made]]]></title>
                <link><![CDATA[https://sharemania.us/threads/ia-britney-spears-deluxe-edition-50-tracks-2023-flac-fan-made.221649/]]></link>
                <description><![CDATA[<article>
<blockquote class="messageText SelectQuoteContainer ugc baseHtml">
<div style="text-align: center"><img src="https://i.postimg.cc/c4tW6z60/CAPA-IA-BRITNEY.jpg" class="bbCodeImage LbImage" alt="[​IMG]" data-url="https://i.postimg.cc/c4tW6z60/CAPA-IA-BRITNEY.jpg" style=""><br>
<span style="font-size: 12px"><b>ORIGINAL COVER:</b> <a href="https://neural.love/ai-art-generator/1ed9ecfa-9bab-66f0-88e9-65a5b8df799f/britney-spears" target="_blank" class="externalLink" rel="nofollow">https://neural.love/ai-art-generator/1ed9ecfa-9bab-66f0-88e9-65a5b8df799f/britney-spears</a></span>​</div><br>
01 [AI] Britney Spears - Get Outta My Way<br>
02 [AI] Britney Spears - Evacuate The Dancefloor<br>
03 [AI] Britney Spears - You Oughta Know<br>
04 [AI] Britney Spears - Straight Up<br>
05 [AI] Britney Spears - Irresistible (Alternative Mix)<br>
06 [AI] Britney Spears - Don't Stop The Music<br>
07 [AI] Britney Spears - Frozen<br>
08 [AI] Britney Spears - Burning Up<br>
09 [AI] Britney Spears - S&amp;M<br>
10 [AI] Britney Spears - Telephone<br>
11 [AI] Britney Spears - Dreaming of You<br>
12 [AI] Britney Spears - 1999 (Charli XCX)<br>
13 [AI] Britney Spears - Hallucinate<br>
14 [AI] Britney Spears - Angel<br>
15 [AI] Britney Spears, Joel Corry, Jones - Out Out<br>
16 [AI] Britney Spears - Milkshake<br>
17 [AI] Britney Spears - Diamonds<br>
18 [AI] Britney Spears - Paparazzi<br>
19 [AI] Britney Spears - Genie In A Bottle<br>
20 [AI] Britney Spears - My All<br>
21 [AI] Britney Spears - Masterpiece<br>
22 [AI] Britney Spears - It's My Life<br>
23 [AI] Britney Spears - Need You Tonight<br>
24 [AI] Britney Spears - Say it Right<br>
25 [AI] Britney Spears, Miley Cyrus, Dua Lipa - Prisioner<br>
26 [AI] Britney Spears - SexyBack<br>
27 [AI] Britney Spears - Like a Virgin<br>
28 [AI] Britney Spears - Crazy<br>
29 [AI] Britney Spears - Timebomb<br>
30 [AI] Britney Spears - Music<br>
31 [AI] Britney Spears, Mariah Carey - ...Baby One More Time<br>
32 [AI] Britney Spears - Hollywood<br>
33 [AI] Britney Spears - We Don't Talk Anymore<br>
34 [AI] Britney Spears - Ghosttown<br>
35 [AI] Britney Spears - Disturbia<br>
36 [AI] Britney Spears - Die Another Day<br>
37 [AI] Britney Spears, Shakira, Beyoncé - Beautiful Liar<br>
38 [AI] Britney Spears - My Heart Will Go On<br>
39 [AI] Britney Spears, Calvin Harris, Disciples - How Deep Is Your Love<br>
40 [AI] Britney Spears, Christina Aguilera - Genie In A Bottle<br>
41 [AI] Britney Spears - American Life<br>
42 [AI] Britney Spears - Beautiful<br>
43 [AI] Britney Spears, Madonna - Love Spent<br>
44 [AI] Britney Spears - Sorry<br>
45 [AI] Britney Spears - Your Body<br>
46 [AI] Britney Spears - Bye Bye Bye<br>
47 [AI] Britney Spears - Dance The Night (From Barbie The Album)<br>
48 [AI] Britney Spears - I Kissed A Girl<br>
49 [AI] Britney Spears - Take A Bow<br>
50 [AI] Britney Spears - This Love<br>
<br>
<div style="text-align: center"><br>
<div class="bbCodeBlock bbCodeVfcHH HiddenContent">
<div class="attribution type">Hidden Content:</div>
<blockquote>You must either reply or click 'Like' to see the hidden information contained here.</blockquote>
</div></div>
<div class="messageTextEndMarker">&nbsp;</div>
</blockquote>
</article>]]></description>
                <author><![CDATA[Fan Made]]></author>
                </item>

                
                <item>
                <title><![CDATA[【Requests】[REQ AUD] - SECRET NUMBER - DOXA]]></title>
                <link><![CDATA[https://sharemania.us/threads/secret-number-doxa.221659/]]></link>
                <description><![CDATA[<article>
<blockquote class="messageText SelectQuoteContainer ugc baseHtml">
I need the flac version (2 songs)
<div class="messageTextEndMarker">&nbsp;</div>
</blockquote>
</article>]]></description>
                <author><![CDATA[atriabr]]></author>
                </item>

                
                <item>
                <title><![CDATA[【Cinema Center】MOVIE - Identity.2003.1080p.HULU.WEB-DL.DDP5.1.H.264-Samuel]]></title>
                <link><![CDATA[https://sharemania.us/threads/identity-2003-1080p-hulu-web-dl-ddp5-1-h-264-samuel.221662/]]></link>
                <description><![CDATA[<article>
<blockquote class="messageText SelectQuoteContainer ugc baseHtml">
<div style="text-align: center"><b><span style="font-size: 26px">Identity</span></b><br>
<img src="https://i.imgur.com/EJUd83U.jpg" class="bbCodeImage LbImage" alt="[​IMG]" data-url="https://i.imgur.com/EJUd83U.jpg" style=""><br>
<b><a href="https://i.imgur.com/e0uPjKG.jpg" target="_blank" class="externalLink" rel="nofollow">Alternate Artwork 1</a></b> | <b><a href="https://i.imgur.com/azxg7H4.jpg" target="_blank" class="externalLink" rel="nofollow">Alternate Artwork 2</a></b> | <b><a href="https://i.imgur.com/TNJhtCr.jpg" target="_blank" class="externalLink" rel="nofollow">Poster</a></b> | <b><a href="https://i.imgur.com/JBNS8Zz.jpg" target="_blank" class="externalLink" rel="nofollow">Key Art</a></b><br>
<br>
<b>Starring:</b> John Cusack, Ray Liotta, Amanda Peet • <b>Director:</b> James Mangold<br>
<br>
<div class="bbCodeBlock bbCodeQuote">
<aside>
<blockquote class="quoteContainer"><div class="quote"><b><span style="font-size: 15px"><span style="font-family: 'Arial'">Description</span></span></b><br>
Stranded at a desolate Nevada motel during a raging rainstorm, ten strangers must band together when realize that they're being killed off one by one.</div><div class="quoteExpand">Click to expand...</div></blockquote>
</aside>
</div>
<div class="bbCodeBlock bbCodeQuote">
<aside>
<blockquote class="quoteContainer"><div class="quote"><b><span style="font-size: 15px"><span style="font-family: 'Arial'">More Information</span></span><br>
Starring:</b> John Cusack, Ray Liotta, Amanda Peet, John Hawkes, Alfred Molina<br>
<b>Director:</b> James Mangold<br>
<br>
R • Thriller, Mystery • Movie • 2003 • 1h 30m</div><div class="quoteExpand">Click to expand...</div></blockquote>
</aside>
</div>
<div class="bbCodeBlock bbCodeQuote">
<aside>
<blockquote class="quoteContainer"><div class="quote"><b><span style="font-size: 15px">Source</span></b><br>
<img src="https://i.imgur.com/4uiLEFv.png" class="bbCodeImage LbImage" alt="[​IMG]" data-url="https://i.imgur.com/4uiLEFv.png" style=""></div><div class="quoteExpand">Click to expand...</div></blockquote>
</aside>
</div>
<div class="bbCodeBlock bbCodeQuote">
<aside>
<blockquote class="quoteContainer"><div class="quote"><b><span style="font-size: 15px">Release Name</span></b><br>
Identity.2003.1080p.HULU.WEB-DL.DDP5.1.H.264-Samuel</div><div class="quoteExpand">Click to expand...</div></blockquote>
</aside>
</div>
<div class="ToggleTriggerAnchor bbCodeSpoilerContainer">
<button type="button" class="button bbCodeSpoilerButton ToggleTrigger Tooltip JsOnly" data-target="> .SpoilerTarget"><span>Spoiler: <span class="SpoilerTitle">Media Information</span></span></button>
<div class="SpoilerTarget bbCodeSpoilerText">General<br>
Complete name : Identity.2003.1080p.HULU.WEB-DL.DDP5.1.H.264-Samuel.mkv<br>
Format : Matroska<br>
Format version : Version 4<br>
File size : 3.43 GiB<br>
Duration : 1 h 30 min<br>
Overall bit rate : 5 463 kb/s<br>
Frame rate : 23.976 FPS<br>
Encoded date : 2023-05-06 21:39:24 UTC<br>
Writing application : mkvmerge v72.0.0 ('Minuano (Six-eight)') 64-bit<br>
Writing library : libebml v1.4.4 + libmatroska v1.7.1<br>
<br>
Video<br>
ID : 1<br>
Format : AVC<br>
Format/Info : Advanced Video Codec<br>
Format profile : High@L4<br>
Format settings : CABAC / 4 Ref Frames<br>
Format settings, CABAC : Yes<br>
Format settings, Reference frames : 4 frames<br>
Codec ID : V_MPEG4/ISO/AVC<br>
Duration : 1 h 29 min<br>
Bit rate : 5 205 kb/s<br>
Width : 1 920 pixels<br>
Height : 1 080 pixels<br>
Display aspect ratio : 16:9<br>
Frame rate mode : Constant<br>
Frame rate : 23.976 (24000/1001) FPS<br>
Color space : YUV<br>
Chroma subsampling : 4:2:0<br>
Bit depth : 8 bits<br>
Scan type : Progressive<br>
Bits/(Pixel*Frame) : 0.105<br>
Stream size : 3.27 GiB (95%)<br>
Default : Yes<br>
Forced : No<br>
<br>
Audio<br>
ID : 2<br>
Format : E-AC-3<br>
Format/Info : Enhanced AC-3<br>
Commercial name : Dolby Digital Plus<br>
Codec ID : A_EAC3<br>
Duration : 1 h 30 min<br>
Bit rate mode : Constant<br>
Bit rate : 256 kb/s<br>
Channel(s) : 6 channels<br>
Channel layout : L R C LFE Ls Rs<br>
Sampling rate : 48.0 kHz<br>
Frame rate : 31.250 FPS (1536 SPF)<br>
Compression mode : Lossy<br>
Stream size : 165 MiB (5%)<br>
Language : English<br>
Service kind : Complete Main<br>
Default : Yes<br>
Forced : No<br>
<br>
Text<br>
ID : 3<br>
Format : UTF-8<br>
Codec ID : S_TEXT/UTF8<br>
Codec ID/Info : UTF-8 Plain Text<br>
Duration : 1 h 26 min<br>
Bit rate : 51 b/s<br>
Frame rate : 0.263 FPS<br>
Count of elements : 1370<br>
Stream size : 32.6 KiB (0%)<br>
Title : SDH<br>
Language : English<br>
Default : No<br>
Forced : No<br>
<br>
Menu<br>
01:26:51.001 : en:Credits</div>
</div><br>
<b>Screenshots</b><br>
<img src="https://i.imgur.com/K1f9zLH.png" class="bbCodeImage LbImage" alt="[​IMG]" data-url="https://i.imgur.com/K1f9zLH.png" style=""><br>
<br>
<b>Download</b><br>
<div class="bbCodeBlock bbCodeVfcHH HiddenContent">
<div class="attribution type">Hidden Content:</div>
<blockquote>You must reply before you can see the hidden data contained here.</blockquote>
</div></div>
<div class="messageTextEndMarker">&nbsp;</div>
</blockquote>
</article>]]></description>
                <author><![CDATA[Samuel]]></author>
                </item>

                </channel></rss>